<svg xmlns:sketch="http://www.bohemiancoding.com/sketch/ns"
     xmlns="http://www.w3.org/2000/svg" viewBox="0 0 32 32"
     style="enable-background:new 0 0 32 32;" xml:space="preserve">

    <g id="icon-147-tags" sketch:type="MSArtboardGroup">
        <path id="tags" sketch:type="MSShapeGroup" class="st0" d="M5,5C3.9,5,3,5.9,3,7v8l13.4,13.4c0.7,0.7,1.8,0.8,2.6,0.2L5,14.5L5,5
            C5,5,5,5,5,5L5,5L5,5z M16,4H8C6.9,4,6,4.9,6,6v8l13.4,13.4c0.8,0.8,2.1,0.8,2.8,0l7.2-7.2c0.8-0.8,0.8-2,0-2.8L16,4L16,4z
             M11.5,11c0.8,0,1.5-0.7,1.5-1.5S12.3,8,11.5,8S10,8.7,10,9.5S10.7,11,11.5,11L11.5,11z"/>
    </g>

</svg>